<svg
  width="40"
  height="40"
  viewBox="0 0 40 40"
  fill="none"
  xmlns="http://www.w3.org/2000/svg"
>
  <!-- <path
    d="M0 20C0 8.95431 8.95431 0 20 0V0C31.0457 0 40 8.95431 40 20V20C40 31.0457 31.0457 40 20 40V40C8.95431 40 0 31.0457 0 20V20Z"
    fill="#F1F3F5"
  />
  <rect width="40" height="40" rx="20" fill="#F1F3F5" /> -->
  <g clip-path="url(#clip0_1445_30192)">
    <path
      d="M14.0956 28.7338C11.4407 26.3493 11.2594 21.106 13.8325 16.3963C16.3513 11.7858 20.6563 9.24978 23.9746 10.1968C15.5704 13.3898 22.5733 25.584 14.0956 28.7338Z"
      fill="#4A83EF"
    />
    <path
      d="M26.1673 23.6033C23.4757 28.5294 18.7457 31.0872 15.3584 29.5588C24.0317 26.4441 16.8073 14.0406 25.488 10.9297C28.5338 13.1239 28.8689 18.6578 26.1673 23.6033Z"
      fill="#4A83EF"
    />
  </g>
  <defs>
    <clipPath id="clip0_1445_30192">
      <rect
        width="16"
        height="20"
        fill="white"
        transform="translate(12 10)"
      />
    </clipPath>
  </defs>
</svg>