<svg width="346" height="346" viewBox="0 0 346 346" fill="none" xmlns="http://www.w3.org/2000/svg">
<rect width="346" height="346" rx="173" fill="#FFCBCB"/>
<path d="M265 193.056C265 231.372 223.586 254.723 172.5 254.723C121.414 254.723 80 231.372 80 193.056C80 154.74 121.414 115.973 172.5 115.973C223.586 115.973 265 154.74 265 193.056Z" fill="#C6E5B3"/>
<path d="M243.185 145.14C250.215 139.487 254.722 130.828 254.722 121.111C254.722 104.086 240.914 90.2773 223.889 90.2773C209.187 90.2773 196.91 100.576 193.821 114.353C187.202 111.871 180.034 110.458 172.5 110.458C164.972 110.458 157.798 111.871 151.179 114.353C148.09 100.576 135.813 90.2773 121.111 90.2773C104.086 90.2773 90.2778 104.086 90.2778 121.111C90.2778 130.828 94.7846 139.487 101.815 145.14C88.2222 158.912 80 176.02 80 193.055C80 231.371 121.414 198.194 172.5 198.194C223.586 198.194 265 231.371 265 193.055C265 176.02 256.778 158.912 243.185 145.14Z" fill="#77B255"/>
<path d="M118.542 136.528C128.475 136.528 136.528 128.475 136.528 118.542C136.528 108.608 128.475 100.556 118.542 100.556C108.608 100.556 100.556 108.608 100.556 118.542C100.556 128.475 108.608 136.528 118.542 136.528Z" fill="white"/>
<path d="M118.542 126.25C122.799 126.25 126.25 122.799 126.25 118.541C126.25 114.284 122.799 110.833 118.542 110.833C114.285 110.833 110.833 114.284 110.833 118.541C110.833 122.799 114.285 126.25 118.542 126.25Z" fill="#292F33"/>
<path d="M226.458 136.528C236.392 136.528 244.444 128.475 244.444 118.542C244.444 108.608 236.392 100.556 226.458 100.556C216.525 100.556 208.472 108.608 208.472 118.542C208.472 128.475 216.525 136.528 226.458 136.528Z" fill="white"/>
<path d="M226.458 126.25C230.716 126.25 234.167 122.799 234.167 118.541C234.167 114.284 230.716 110.833 226.458 110.833C222.201 110.833 218.75 114.284 218.75 118.541C218.75 122.799 222.201 126.25 226.458 126.25Z" fill="#292F33"/>
<path d="M151.945 187.916C154.783 187.916 157.083 185.616 157.083 182.778C157.083 179.939 154.783 177.639 151.945 177.639C149.106 177.639 146.806 179.939 146.806 182.778C146.806 185.616 149.106 187.916 151.945 187.916Z" fill="#5C913B"/>
<path d="M193.055 187.916C195.894 187.916 198.194 185.616 198.194 182.778C198.194 179.939 195.894 177.639 193.055 177.639C190.217 177.639 187.917 179.939 187.917 182.778C187.917 185.616 190.217 187.916 193.055 187.916Z" fill="#5C913B"/>
</svg>
