<svg
  width="40"
  height="40"
  viewBox="0 0 40 40"
  fill="none"
  xmlns="http://www.w3.org/2000/svg"
>
  <g clip-path="url(#f)">
    <path
      d="m0 20c0-11.046 8.9543-20 20-20 11.046 0 20 8.9543 20 20 0 11.046-8.9543 20-20 20-11.046 0-20-8.9543-20-20z"
      fill="url(#d)"
    />
    <path
      d="m29.666 21.267c1.0816-3.5921 1.7482-9.7333-2.8-13.933-3.476-3.2099-12.867-3.5333-16.133 3.4666-0.5453 1.1686 0.2 3 1.6667 2.9334 0.5764-0.0267 0.9333 1.8 1.2667 2.9333-0.4667 4.6-4.6243 4.6849-6.7334 8.2-2.6 4.3333 0.6 10.733 8.2667 10.733 7.6667 0 12.062-6.346 14.467-14.333z"
      fill="url(#c)"
    />
    <path
      d="m23.2 30.4s-1.7341 0.6-3.3 0.6-3.1-0.8-3.1-0.8v-6.2c-0.3369 0.0533-0.6781 0.0735-1.0189 0.0606-3.1984-3e-4 -4.4044-4.6591-3.7811-10.327 0.4 0 1.3333 0 2.6667-1.8667-0.3334 2.6 3.5333 2.2 5 0.1333-0.7334 2.4667 1.2 4.1334 2.8666 3.1334 3.2682-1.961 4.0028 4.0168 0.6667 4.0666v11.2z"
      fill="url(#b)"
    />
    <g opacity=".782">
      <path
        d="m16.801 24c1.654-0.3045 3.2366-0.9149 4.6666-1.8 0 0-1.6666 2.8667-4.6666 2.8667v-1.0667z"
        fill="#FFD7B8"
      />
    </g>
    <path
      d="m19.467 36.8c0-0.1055 0.0313-0.2086 0.0899-0.2963s0.1419-0.1561 0.2393-0.1964c0.0975-0.0404 0.2047-0.051 0.3082-0.0304 0.1034 0.0206 0.1985 0.0714 0.2731 0.146 0.0745 0.0746 0.1253 0.1696 0.1459 0.2731 0.0206 0.1034 0.01 0.2107-0.0303 0.3081-0.0404 0.0975-0.1088 0.1808-0.1965 0.2394s-0.1908 0.0898-0.2963 0.0898c-0.1414 0-0.2771-0.0561-0.3771-0.1562-0.1-0.1-0.1562-0.2356-0.1562-0.3771zm0-2.6667c0-0.1054 0.0313-0.2085 0.0899-0.2963 0.0586-0.0877 0.1419-0.156 0.2393-0.1964 0.0975-0.0404 0.2047-0.0509 0.3082-0.0303 0.1034 0.0205 0.1985 0.0713 0.2731 0.1459 0.0745 0.0746 0.1253 0.1696 0.1459 0.2731s0.01 0.2107-0.0303 0.3081c-0.0404 0.0975-0.1088 0.1808-0.1965 0.2394s-0.1908 0.0899-0.2963 0.0899c-0.1414 0-0.2771-0.0562-0.3771-0.1562s-0.1562-0.2357-0.1562-0.3772zm0-2.6666c0-0.1055 0.0313-0.2086 0.0899-0.2963s0.1419-0.1561 0.2393-0.1965c0.0975-0.0403 0.2047-0.0509 0.3082-0.0303 0.1034 0.0206 0.1985 0.0714 0.2731 0.146 0.0745 0.0745 0.1253 0.1696 0.1459 0.273 0.0206 0.1035 0.01 0.2107-0.0303 0.3082-0.0404 0.0974-0.1088 0.1807-0.1965 0.2393s-0.1908 0.0899-0.2963 0.0899c-0.1414 0-0.2771-0.0562-0.3771-0.1562s-0.1562-0.2357-0.1562-0.3771z"
      fill="url(#a)"
    />
    <mask
      id="e"
      x="6"
      y="24"
      width="28"
      height="18"
      maskUnits="userSpaceOnUse"
    >
      <path
        d="m23.164 24.735c2.3859 0.2688 4.218 1.0078 4.218 2.9208l-7e-4 -0.0574c3.4086 1.4498 5.8007 4.8472 5.8007 8.8071v4.7946h-26.364v-4.7946c0-3.96 2.3922-7.3574 5.8008-8.8072 0.0362-1.8704 1.8554-2.5972 4.2173-2.8633v2.5124c0 1.7593 1.4164 3.1854 3.1637 3.1854 1.7472 0 3.1636-1.4261 3.1636-3.1854l2e-4 -2.5124z"
        fill="#fff"
      />
    </mask>
    <g mask="url(#e)">
      <path
        d="m23.164 24.735c2.3859 0.2688 4.218 1.0078 4.218 2.9208l-7e-4 -0.0574c3.4086 1.4498 5.8007 4.8472 5.8007 8.8071l2.018 11.094-14 0.7-16.7-0.4 2.3184-11.394c0-3.96 2.3922-7.3574 5.8008-8.8072 0.0362-1.8704 1.8554-2.5972 4.2173-2.8633v2.5124c0 1.7593 1.4164 3.1854 3.1637 3.1854 1.7472 0 3.1636-1.4261 3.1636-3.1854l2e-4 -2.5124z"
        fill="#65C9FF"
      />
      <path
        d="m16.107 31.326v8.6739h-0.9081l-1e-4 -9.2c0.2859 0.1921 0.5899 0.3681 0.9082 0.5261zm8.6918-0.5261-2e-4 5.9144c0 0.2833-0.2032 0.513-0.454 0.513s-0.454-0.2297-0.454-0.513l1e-4 -5.3883c0.3183-0.1581 0.6222-0.3341 0.9081-0.5261z"
        clip-rule="evenodd"
        fill="#fff"
        fill-rule="evenodd"
      />
      <path
        d="m25.41 24.689c1.9839 0.3779 3.356 1.1307 3.356 2.5992 0 2.6164-4.355 4.7374-8.7659 4.7374-4.411 0-8.7659-2.121-8.7659-4.7374 0-1.4685 1.372-2.2213 3.3559-2.5992-1.1974 0.4447-1.9718 1.1921-1.9718 2.4359 0 2.7066 3.6673 4.9007 7.3818 4.9007s7.3818-2.1941 7.3818-4.9007c0-1.218-0.7426-1.96-1.898-2.4078l-0.0739-0.0281z"
        clip-rule="evenodd"
        fill="#000"
        fill-opacity=".16"
        fill-rule="evenodd"
      />
    </g>
  </g>
  <defs>
    <linearGradient
      id="d"
      x1="20"
      x2="20"
      y1="40"
      gradientUnits="userSpaceOnUse"
    >
      <stop stop-color="#E0E0E0" offset="0" />
      <stop stop-color="#D9D9D9" offset="1" />
    </linearGradient>
    <linearGradient
      id="c"
      x1="18.25"
      x2="18.25"
      y1="5.1451"
      y2="35.6"
      gradientUnits="userSpaceOnUse"
    >
      <stop stop-color="#130027" offset="0" />
      <stop stop-color="#130017" offset="1" />
    </linearGradient>
    <linearGradient
      id="b"
      x1="18.606"
      x2="18.606"
      y1="11.867"
      y2="27.867"
      gradientUnits="userSpaceOnUse"
    >
      <stop stop-color="#FFE0CC" offset="0" />
      <stop stop-color="#FFEADB" offset="1" />
    </linearGradient>
    <linearGradient
      id="a"
      x1="20"
      x2="20"
      y1="30.933"
      y2="37.333"
      gradientUnits="userSpaceOnUse"
    >
      <stop stop-color="#130027" offset="0" />
      <stop stop-color="#130017" offset="1" />
    </linearGradient>
    <clipPath id="f">
      <path
        d="m0 20c0-11.046 8.9543-20 20-20 11.046 0 20 8.9543 20 20 0 11.046-8.9543 20-20 20-11.046 0-20-8.9543-20-20z"
        fill="#fff"
      />
    </clipPath>
  </defs>
</svg>