<svg width="346" height="346" viewBox="0 0 346 346" fill="none" xmlns="http://www.w3.org/2000/svg">
<rect width="346" height="346" rx="173" fill="#B3E89A"/>
<path d="M150.021 130.371C153.402 143.933 150.925 155.444 137.369 158.82C123.802 162.196 105.451 184.278 92.239 151.43C84.5769 132.401 77.886 92.5077 85.4916 90.6114C93.0971 88.7203 146.644 116.809 150.021 130.371V130.371Z" fill="#F4900C"/>
<path d="M139.773 133.213C144.707 141.117 130.364 156.651 122.465 161.59C114.562 166.528 107.568 158.753 99.7824 138.907C96.3805 130.227 91.221 106.686 94.1142 104.877C97.0023 103.073 134.835 125.309 139.773 133.213Z" fill="#A0041E"/>
<path d="M196.918 130.371C193.541 143.933 196.008 155.444 209.575 158.82C223.141 162.196 241.487 184.278 254.704 151.43C262.361 132.401 269.052 92.5077 261.447 90.6114C253.841 88.7203 200.299 116.809 196.918 130.371V130.371Z" fill="#F4900C"/>
<path d="M207.17 133.213C202.237 141.117 216.579 156.652 224.478 161.59C232.376 166.529 239.37 158.753 247.156 138.907C250.558 130.233 255.717 106.691 252.829 104.883C249.936 103.074 212.108 125.31 207.17 133.213Z" fill="#A0041E"/>
<path d="M173.505 127.561C139.475 116.219 114.557 137.705 94.1143 178.605H105.456C105.456 178.605 94.1143 189.942 88.4409 206.957C99.7824 201.283 105.456 201.283 105.456 201.283C105.456 201.283 99.7824 212.63 99.7824 218.303C116.797 206.957 133.807 206.957 145.149 223.971C156.49 240.986 173.505 223.971 173.505 201.288V127.561Z" fill="#F4900C"/>
<path d="M173.505 127.561C207.53 116.219 232.453 137.705 252.891 178.6H241.554C241.554 178.6 252.891 189.937 258.559 206.951C247.222 201.278 241.554 201.278 241.554 201.278C241.554 201.278 247.223 212.625 247.223 218.298C230.208 206.951 213.198 206.951 201.856 223.966C190.51 240.981 173.5 223.966 173.5 201.283L173.505 127.561V127.561Z" fill="#F4900C"/>
<path d="M173.505 122.602H173.49C115.246 122.607 124.131 145.053 130.374 182.377C136.613 219.716 143.992 246.207 173.505 246.207C203.007 246.207 210.377 219.716 216.626 182.377C222.859 145.048 231.739 122.607 173.505 122.602V122.602Z" fill="#F4900C"/>
<path d="M259.366 213.826C258.934 184.494 211.569 194.581 207.53 198.554C201.856 204.124 201.836 238.149 173.495 238.149C145.149 238.149 139.476 204.124 133.807 198.554C129.763 194.581 86.3548 191.344 87.4237 213.826C98.7652 208.153 105.451 209.798 105.451 209.798C105.451 209.798 98.128 214.042 99.202 224.104C115.688 216.612 123.396 217.681 132.389 222.177C138.622 240.795 154.003 254.722 173.505 254.722C192.997 254.722 208.172 240.364 214.401 221.751C221.893 215.327 233.456 217.254 247.372 223.888C248.872 214.469 241.554 209.798 241.554 209.798C241.554 209.798 248.029 208.153 259.366 213.826V213.826Z" fill="#F18F26"/>
<path d="M258.564 206.951C253.918 192.984 211.569 186.067 207.53 190.039C201.856 195.61 201.836 229.634 173.495 229.634C145.149 229.634 139.475 195.61 133.807 190.039C129.763 186.067 93.0968 192.984 88.4409 206.951C99.7824 201.278 105.456 201.278 105.456 201.278C105.456 201.278 99.7824 212.624 99.7824 218.298C113.503 209.151 127.219 207.393 137.959 215.975C144.193 234.593 154.003 246.207 173.505 246.207C192.997 246.207 202.797 234.598 209.025 215.985C219.776 207.388 233.501 209.151 247.227 218.298C247.227 212.624 241.559 201.278 241.559 201.278C241.559 201.278 247.227 201.283 258.564 206.951V206.951Z" fill="#FFD983"/>
<path d="M137.528 167.361C137.528 167.361 137.528 159.652 145.236 159.652C152.944 159.652 152.944 167.361 152.944 167.361V175.069C152.944 175.069 152.944 182.777 145.236 182.777C137.528 182.777 137.528 175.069 137.528 175.069V167.361ZM194.056 167.361C194.056 167.361 194.056 159.652 201.764 159.652C209.472 159.652 209.472 167.361 209.472 167.361V175.069C209.472 175.069 209.472 182.777 201.764 182.777C194.056 182.777 194.056 175.069 194.056 175.069V167.361ZM157.77 222.902C152.523 223.971 168.258 243.293 173.505 243.293C178.747 243.293 194.482 223.971 189.24 222.902C183.994 221.833 163.017 221.833 157.77 222.902V222.902Z" fill="#272B2B"/>
</svg>
