<svg width="346" height="346" viewBox="0 0 346 346" fill="none" xmlns="http://www.w3.org/2000/svg">
<rect width="346" height="346" rx="173" fill="#D5BCFF"/>
<path d="M115.972 141.667C133.001 141.667 146.805 127.862 146.805 110.833C146.805 93.8046 133.001 80 115.972 80C98.9432 80 85.1387 93.8046 85.1387 110.833C85.1387 127.862 98.9432 141.667 115.972 141.667Z" fill="#FFCC4D"/>
<path d="M172.5 265C189.529 265 203.333 251.195 203.333 234.166C203.333 217.138 189.529 203.333 172.5 203.333C155.471 203.333 141.667 217.138 141.667 234.166C141.667 251.195 155.471 265 172.5 265Z" fill="#FFCC4D"/>
<path d="M172.5 254.722C183.852 254.722 193.055 245.519 193.055 234.167C193.055 222.814 183.852 213.611 172.5 213.611C161.147 213.611 151.944 222.814 151.944 234.167C151.944 245.519 161.147 254.722 172.5 254.722Z" fill="#DD2E44"/>
<path d="M229.028 141.667C246.056 141.667 259.861 127.862 259.861 110.833C259.861 93.8046 246.056 80 229.028 80C211.999 80 198.194 93.8046 198.194 110.833C198.194 127.862 211.999 141.667 229.028 141.667Z" fill="#FFCC4D"/>
<path d="M115.972 131.388C127.325 131.388 136.528 122.185 136.528 110.833C136.528 99.4804 127.325 90.2773 115.972 90.2773C104.62 90.2773 95.4165 99.4804 95.4165 110.833C95.4165 122.185 104.62 131.388 115.972 131.388Z" fill="#E6AAAA"/>
<path d="M229.028 131.388C240.38 131.388 249.583 122.185 249.583 110.833C249.583 99.4804 240.38 90.2773 229.028 90.2773C217.675 90.2773 208.472 99.4804 208.472 110.833C208.472 122.185 217.675 131.388 229.028 131.388Z" fill="#E6AAAA"/>
<path d="M254.722 193.056C254.722 229.028 229.424 229.028 229.424 229.028H115.577C115.577 229.028 90.2778 229.028 90.2778 193.056C90.2778 193.056 96.6038 80 172.5 80C248.401 80 254.722 193.056 254.722 193.056Z" fill="#FFCC4D"/>
<path d="M136.528 167.361C136.528 167.361 136.528 157.083 146.806 157.083C157.083 157.083 157.083 167.361 157.083 167.361V177.639C157.083 177.639 157.083 187.916 146.806 187.916C136.528 187.916 136.528 177.639 136.528 177.639V167.361ZM187.917 167.361C187.917 167.361 187.917 157.083 198.194 157.083C208.472 157.083 208.472 167.361 208.472 167.361V177.639C208.472 177.639 208.472 187.916 198.194 187.916C187.917 187.916 187.917 177.639 187.917 177.639V167.361Z" fill="#272B2B"/>
<path d="M201.679 198.194C189.335 198.194 178.548 203.092 172.5 210.415C166.451 203.092 155.66 198.194 143.316 198.194C90.2777 198.194 90.4987 200.358 90.2777 214.546C89.8307 243.375 124.349 250.005 143.316 249.583C155.655 249.311 166.451 244.501 172.5 237.265C178.548 244.501 189.335 249.316 201.679 249.583C220.646 250.005 255.169 243.375 254.717 214.546C254.496 200.358 254.717 198.194 201.679 198.194V198.194Z" fill="white"/>
<path d="M252.975 209.716C254.023 211.15 254.686 212.737 254.717 214.541C254.871 224.331 250.889 231.515 244.876 236.777L218.745 239.306L252.975 209.716ZM157.083 208.472C151.944 213.611 167.361 229.028 172.5 229.028C177.639 229.028 193.056 213.611 187.917 208.472C182.778 203.333 162.222 203.333 157.083 208.472ZM131.389 95.4167C145.094 105.694 172.5 115.972 172.5 115.972C172.5 115.972 199.906 105.694 213.611 95.4167L172.5 100.556L131.389 95.4167ZM172.5 90.2778C172.5 90.2778 180.989 87.0917 190.877 82.4975C185.244 80.9147 179.155 80 172.5 80C165.845 80 159.75 80.9147 154.123 82.4975C164.011 87.0917 172.5 90.2778 172.5 90.2778ZM136.528 126.25C151.944 136.528 172.5 146.806 172.5 146.806C172.5 146.806 193.056 136.528 208.472 126.25L172.5 131.389L136.528 126.25ZM242.62 137.992L218.75 157.083L249.614 160.937C247.898 153.738 245.621 145.891 242.62 137.992ZM252.441 174.782L223.889 203.333H253.874C254.398 200.276 254.722 196.905 254.722 193.056C254.722 193.056 254.306 185.707 252.441 174.782ZM92.5594 174.782C90.6991 185.707 90.2778 193.056 90.2778 193.056C90.2778 196.899 90.6015 200.276 91.1257 203.333H121.111L92.5594 174.782V174.782ZM92.0198 209.716C90.9715 211.15 90.3086 212.737 90.2778 214.546C90.1236 224.336 94.1062 231.52 100.124 236.782L126.25 239.306L92.0198 209.716V209.716ZM126.25 157.083L102.385 137.992C99.3839 145.891 97.1022 153.738 95.391 160.943L126.25 157.083Z" fill="#272B2B"/>
</svg>
