<svg width="346" height="346" viewBox="0 0 346 346" fill="none" xmlns="http://www.w3.org/2000/svg">
<rect width="346" height="346" rx="173" fill="#BCC3FF"/>
<g clip-path="url(#clip0_1544_30313)">
<path d="M123.681 172.5C147.805 172.5 167.361 152.943 167.361 128.819C167.361 104.695 147.805 85.1387 123.681 85.1387C99.5564 85.1387 80 104.695 80 128.819C80 152.943 99.5564 172.5 123.681 172.5Z" fill="#FFCC4D"/>
<path d="M221.319 172.5C245.443 172.5 265 152.943 265 128.819C265 104.695 245.443 85.1387 221.319 85.1387C197.195 85.1387 177.639 104.695 177.639 128.819C177.639 152.943 197.195 172.5 221.319 172.5Z" fill="#FFCC4D"/>
<path d="M151.492 110.083C144.997 101.753 134.899 96.3779 123.521 96.3779C103.927 96.3779 88.0322 112.273 88.0322 131.867C88.0322 146.117 96.4497 158.368 108.567 164.016C112.211 142.458 129.035 119.452 151.492 110.083V110.083ZM221.479 96.3831C210.101 96.3831 199.998 101.758 193.508 110.088C215.96 119.457 232.784 142.463 236.438 164.026C248.551 158.379 256.973 146.128 256.973 131.877C256.973 112.273 241.079 96.3831 221.479 96.3831V96.3831Z" fill="#EA596E"/>
<path d="M254.722 196.103C244.444 144.483 196.483 162.701 172.5 162.701C148.517 162.701 100.555 144.478 90.2777 196.103C83.6228 229.527 109.775 246.87 136.692 254.62C145.171 260.951 158.06 265 172.5 265C186.94 265 199.828 260.951 208.313 254.615C235.225 246.865 261.377 229.527 254.722 196.103Z" fill="#FFE8B6"/>
<path d="M237.25 172.5C237.25 229.028 208.262 203.333 172.5 203.333C136.738 203.333 107.75 229.028 107.75 172.5C107.75 142.699 136.738 105.694 172.5 105.694C208.262 105.694 237.25 142.699 237.25 172.5Z" fill="#FFCC4D"/>
<path d="M187.428 223.663C187.428 231.906 177.089 240.889 172.5 240.889C167.906 240.889 157.571 231.906 157.571 223.663C157.571 215.415 166.754 213.611 172.5 213.611C178.24 213.611 187.428 215.415 187.428 223.663Z" fill="#EA596E"/>
<path d="M262.507 235.724C235.554 219.557 199.017 224.546 197.47 224.762C197.398 224.773 197.352 224.819 197.28 224.829C196.863 224.906 196.493 225.076 196.108 225.245C195.872 225.353 195.63 225.425 195.419 225.564C195.106 225.764 194.869 226.037 194.607 226.304C194.397 226.515 194.176 226.695 194.006 226.936C193.821 227.203 193.718 227.506 193.585 227.81C193.446 228.128 193.287 228.431 193.22 228.781C193.199 228.863 193.143 228.925 193.127 229.012C193.081 229.295 193.158 229.552 193.158 229.829C193.153 230.081 193.076 230.317 193.112 230.58C193.122 230.662 193.174 230.718 193.189 230.795C193.256 231.15 193.4 231.463 193.533 231.787C193.657 232.096 193.759 232.404 193.939 232.676C194.083 232.902 194.284 233.067 194.458 233.267C194.731 233.565 194.993 233.853 195.322 234.079C195.517 234.213 195.748 234.29 195.964 234.398C196.344 234.583 196.714 234.757 197.141 234.845C197.218 234.86 197.274 234.912 197.352 234.927C197.639 234.978 226.314 239.948 240.333 258.633C241.34 259.984 242.882 260.688 244.449 260.688C245.523 260.688 246.603 260.354 247.528 259.66C249.799 257.96 250.262 254.737 248.555 252.471C242.862 244.871 235.333 239.285 227.871 235.158C237.532 236.402 248.129 239.09 257.22 244.542C258.047 245.04 258.962 245.277 259.861 245.277C261.608 245.277 263.309 244.388 264.27 242.784C265.73 240.338 264.938 237.183 262.507 235.724V235.724ZM151.066 232.661C151.24 232.394 151.338 232.09 151.461 231.792C151.595 231.463 151.744 231.155 151.811 230.801C151.826 230.718 151.877 230.657 151.893 230.574C151.929 230.302 151.852 230.045 151.847 229.783C151.847 229.521 151.919 229.269 151.872 229.007C151.862 228.925 151.806 228.868 151.79 228.786C151.713 228.431 151.559 228.113 151.41 227.789C151.281 227.496 151.179 227.198 150.999 226.941C150.834 226.7 150.613 226.52 150.408 226.309C150.146 226.037 149.899 225.77 149.586 225.559C149.38 225.43 149.138 225.358 148.912 225.251C148.527 225.076 148.152 224.911 147.73 224.834C147.658 224.819 147.607 224.773 147.535 224.762C145.988 224.546 109.446 219.551 82.4974 235.724C80.0615 237.183 79.2753 240.338 80.7347 242.774C81.7008 244.377 83.4018 245.266 85.1439 245.266C86.0432 245.266 86.9579 245.03 87.7853 244.532C96.8708 239.079 107.467 236.397 117.123 235.153C109.667 239.275 102.143 244.866 96.4494 252.461C94.7433 254.727 95.2058 257.949 97.4772 259.65C98.4022 260.344 99.4865 260.678 100.555 260.678C102.118 260.678 103.659 259.969 104.672 258.622C118.634 240.009 147.376 234.963 147.664 234.917C147.741 234.901 147.792 234.855 147.869 234.835C148.265 234.752 148.609 234.583 148.969 234.413C149.216 234.3 149.478 234.213 149.699 234.059C150.002 233.853 150.233 233.581 150.48 233.319C150.68 233.103 150.901 232.913 151.066 232.661V232.661Z" fill="#C1694F"/>
<path d="M131.389 182.778C131.389 182.778 131.389 172.5 141.666 172.5C151.944 172.5 151.944 182.778 151.944 182.778V193.056C151.944 193.056 151.944 203.333 141.666 203.333C131.389 203.333 131.389 193.056 131.389 193.056V182.778ZM193.055 182.778C193.055 182.778 193.055 172.5 203.333 172.5C213.611 172.5 213.611 182.778 213.611 182.778V193.056C213.611 193.056 213.611 203.333 203.333 203.333C193.055 203.333 193.055 193.056 193.055 193.056V182.778Z" fill="#272B2B"/>
</g>
<defs>
<clipPath id="clip0_1544_30313">
<rect width="185" height="185" fill="white" transform="translate(80 80)"/>
</clipPath>
</defs>
</svg>
