<svg width="346" height="346" viewBox="0 0 346 346" fill="none" xmlns="http://www.w3.org/2000/svg">
<rect width="346" height="346" rx="173" fill="#FFF0BA"/>
<path d="M158.083 218.75V249.583C158.083 249.583 158.083 265 173.5 265C188.917 265 188.917 249.583 188.917 249.583V218.75H158.083Z" fill="#DD2E44"/>
<path d="M158.083 249.583L158.089 249.773C163.438 249.594 168.449 248.365 171.614 243.165C172.493 241.721 174.507 241.721 175.391 243.165C178.557 248.36 183.567 249.594 188.917 249.773V218.75H158.083V249.583Z" fill="#BE1931"/>
<path d="M245.208 191.098C245.208 223.35 219.514 223.35 219.514 223.35H127.014C127.014 223.35 101.319 223.35 101.319 191.098C101.319 156.544 127.014 95.417 173.264 95.417C219.514 95.417 245.208 161.683 245.208 191.098Z" fill="#D99E82"/>
<path d="M173.5 182.777C137.528 182.777 122.111 200.902 122.111 215.641C122.111 231.247 134.763 243.904 150.375 243.904C158.623 243.904 166.008 240.492 171.183 229.685C172.133 227.702 174.862 227.702 175.813 229.685C180.988 240.492 188.377 243.904 196.62 243.904C212.232 243.904 224.884 231.247 224.884 215.641C224.889 200.902 209.472 182.777 173.5 182.777Z" fill="#F4C7B5"/>
<path d="M158.083 197.655C152.944 202.794 168.361 218.211 173.5 218.211C178.639 218.211 194.056 202.794 188.917 197.655C183.778 192.516 163.222 192.516 158.083 197.655ZM147.806 177.639C142.153 177.639 137.528 173.014 137.528 167.361V157.083C137.528 151.431 142.153 146.806 147.806 146.806C153.458 146.806 158.083 151.431 158.083 157.083V167.361C158.083 173.014 153.458 177.639 147.806 177.639ZM199.194 177.639C193.542 177.639 188.917 173.014 188.917 167.361V157.083C188.917 151.431 193.542 146.806 199.194 146.806C204.847 146.806 209.472 151.431 209.472 157.083V167.361C209.472 173.014 204.847 177.639 199.194 177.639Z" fill="#292F33"/>
<path d="M158.083 98.541C152.641 91.3003 141.027 84.5273 95.5328 101.583C74.2372 109.569 84.6383 171.493 101.222 175.506C106.905 175.506 123.966 175.506 123.966 130.017C123.966 128.886 123.956 127.843 123.941 126.805C134.188 112.365 145.236 104.96 158.083 98.541ZM251.467 101.583C205.973 84.5273 194.359 91.3003 188.917 98.541C201.764 104.965 212.812 112.37 223.059 126.81C223.044 127.843 223.034 128.886 223.034 130.022C223.034 175.511 240.09 175.511 245.778 175.511C262.362 171.493 272.763 109.569 251.467 101.583V101.583Z" fill="#662113"/>
<path d="M201.764 213.612C203.183 213.612 204.333 212.461 204.333 211.042C204.333 209.623 203.183 208.473 201.764 208.473C200.345 208.473 199.194 209.623 199.194 211.042C199.194 212.461 200.345 213.612 201.764 213.612Z" fill="#D99E82"/>
<path d="M140.097 213.612C141.516 213.612 142.667 212.461 142.667 211.042C142.667 209.623 141.516 208.473 140.097 208.473C138.678 208.473 137.528 209.623 137.528 211.042C137.528 212.461 138.678 213.612 140.097 213.612Z" fill="#D99E82"/>
<path d="M212.042 223.889C213.461 223.889 214.611 222.739 214.611 221.319C214.611 219.9 213.461 218.75 212.042 218.75C210.623 218.75 209.472 219.9 209.472 221.319C209.472 222.739 210.623 223.889 212.042 223.889Z" fill="#D99E82"/>
<path d="M134.958 223.889C136.377 223.889 137.528 222.739 137.528 221.319C137.528 219.9 136.377 218.75 134.958 218.75C133.539 218.75 132.389 219.9 132.389 221.319C132.389 222.739 133.539 223.889 134.958 223.889Z" fill="#D99E82"/>
<path d="M199.195 229.028C202.033 229.028 204.333 226.727 204.333 223.889C204.333 221.051 202.033 218.75 199.195 218.75C196.356 218.75 194.056 221.051 194.056 223.889C194.056 226.727 196.356 229.028 199.195 229.028Z" fill="#D99E82"/>
<path d="M147.805 229.028C150.644 229.028 152.944 226.727 152.944 223.889C152.944 221.051 150.644 218.75 147.805 218.75C144.967 218.75 142.667 221.051 142.667 223.889C142.667 226.727 144.967 229.028 147.805 229.028Z" fill="#D99E82"/>
<path d="M131.787 117.165C130.456 113.706 128.529 109.986 125.744 107.2C123.735 105.191 120.487 105.191 118.478 107.2C116.468 109.21 116.468 112.457 118.478 114.467C121.407 117.396 123.956 124.405 123.966 126.523C124.711 124.446 128.278 120.613 131.787 117.165V117.165ZM215.125 117.165C216.456 113.711 218.383 109.986 221.168 107.2C223.177 105.191 226.425 105.191 228.434 107.2C230.444 109.21 230.444 112.457 228.434 114.467C225.505 117.396 222.956 124.405 222.946 126.523C222.201 124.446 218.635 120.613 215.125 117.165V117.165Z" fill="#380F09"/>
</svg>
